<mxfile host="app.diagrams.net" modified="2021-12-08T13:40:48.973Z" agent="5.0 (X11)" etag="pNCZ_Cv0xxmEoWMfusHr" version="15.9.3" type="github">
  <diagram name="Page-1" id="c37626ed-c26b-45fb-9056-f9ebc6bb27b6">
    <mxGraphModel dx="1624" dy="844" grid="1" gridSize="10" guides="1" tooltips="1" connect="1" arrows="1" fold="1" page="1" pageScale="1" pageWidth="1100" pageHeight="850" background="none" math="0" shadow="0">
      <root>
        <mxCell id="0" />
        <mxCell id="1" parent="0" />
        <mxCell id="1c7a67bf8fd3230f-51" style="edgeStyle=none;html=1;labelBackgroundColor=none;startFill=0;endArrow=none;endFill=0;strokeWidth=2;fontFamily=Verdana;fontSize=12;" parent="1" source="u7dvvFw9IW0LgKCaf64A-6" target="1c7a67bf8fd3230f-48" edge="1">
          <mxGeometry relative="1" as="geometry">
            <mxPoint x="965" y="502.1326530612246" as="sourcePoint" />
          </mxGeometry>
        </mxCell>
        <mxCell id="1c7a67bf8fd3230f-15" value="Internet" style="ellipse;shape=cloud;whiteSpace=wrap;html=1;rounded=0;shadow=0;comic=0;strokeWidth=1;fontFamily=Verdana;fontSize=12;" parent="1" vertex="1">
          <mxGeometry x="1039" y="170" width="120" height="80" as="geometry" />
        </mxCell>
        <mxCell id="1c7a67bf8fd3230f-52" style="edgeStyle=none;html=1;labelBackgroundColor=none;startFill=0;endArrow=none;endFill=0;strokeWidth=2;fontFamily=Verdana;fontSize=12;" parent="1" source="1c7a67bf8fd3230f-48" target="1c7a67bf8fd3230f-15" edge="1">
          <mxGeometry relative="1" as="geometry" />
        </mxCell>
        <mxCell id="u7dvvFw9IW0LgKCaf64A-16" style="edgeStyle=none;rounded=0;orthogonalLoop=1;jettySize=auto;html=1;entryX=0.08;entryY=0;entryDx=0;entryDy=0;entryPerimeter=0;" edge="1" parent="1" source="1c7a67bf8fd3230f-48" target="u7dvvFw9IW0LgKCaf64A-10">
          <mxGeometry relative="1" as="geometry" />
        </mxCell>
        <mxCell id="1c7a67bf8fd3230f-48" value="" style="shape=mxgraph.cisco.routers.router;html=1;dashed=0;fillColor=#036897;strokeColor=#ffffff;strokeWidth=2;verticalLabelPosition=bottom;verticalAlign=top;rounded=0;shadow=0;comic=0;fontFamily=Verdana;fontSize=12;" parent="1" vertex="1">
          <mxGeometry x="1060" y="410" width="78" height="53" as="geometry" />
        </mxCell>
        <mxCell id="u7dvvFw9IW0LgKCaf64A-5" style="rounded=0;orthogonalLoop=1;jettySize=auto;html=1;exitX=0.12;exitY=0.11;exitDx=0;exitDy=0;exitPerimeter=0;entryX=1;entryY=0.5;entryDx=0;entryDy=0;entryPerimeter=0;" edge="1" parent="1" source="u7dvvFw9IW0LgKCaf64A-2" target="1c7a67bf8fd3230f-48">
          <mxGeometry relative="1" as="geometry" />
        </mxCell>
        <mxCell id="u7dvvFw9IW0LgKCaf64A-2" value="" style="shape=mxgraph.cisco.wireless.wireless_bridge;sketch=0;html=1;pointerEvents=1;dashed=0;fillColor=#036897;strokeColor=#ffffff;strokeWidth=2;verticalLabelPosition=bottom;verticalAlign=top;align=center;outlineConnect=0;" vertex="1" parent="1">
          <mxGeometry x="1280" y="500" width="75" height="61" as="geometry" />
        </mxCell>
        <mxCell id="u7dvvFw9IW0LgKCaf64A-14" style="edgeStyle=none;rounded=0;orthogonalLoop=1;jettySize=auto;html=1;exitX=0.5;exitY=1;exitDx=0;exitDy=0;exitPerimeter=0;" edge="1" parent="1" source="u7dvvFw9IW0LgKCaf64A-6" target="u7dvvFw9IW0LgKCaf64A-8">
          <mxGeometry relative="1" as="geometry" />
        </mxCell>
        <mxCell id="u7dvvFw9IW0LgKCaf64A-6" value="" style="shape=mxgraph.cisco.wireless.wlan_controller;sketch=0;html=1;pointerEvents=1;dashed=0;fillColor=#036897;strokeColor=#ffffff;strokeWidth=2;verticalLabelPosition=bottom;verticalAlign=top;align=center;outlineConnect=0;" vertex="1" parent="1">
          <mxGeometry x="860" y="500" width="101" height="56" as="geometry" />
        </mxCell>
        <mxCell id="u7dvvFw9IW0LgKCaf64A-13" style="edgeStyle=none;rounded=0;orthogonalLoop=1;jettySize=auto;html=1;exitX=0.755;exitY=0;exitDx=0;exitDy=0;exitPerimeter=0;" edge="1" parent="1" source="u7dvvFw9IW0LgKCaf64A-7" target="u7dvvFw9IW0LgKCaf64A-6">
          <mxGeometry relative="1" as="geometry" />
        </mxCell>
        <mxCell id="u7dvvFw9IW0LgKCaf64A-7" value="" style="shape=mxgraph.cisco.computers_and_peripherals.workstation;sketch=0;html=1;pointerEvents=1;dashed=0;fillColor=#036897;strokeColor=#ffffff;strokeWidth=2;verticalLabelPosition=bottom;verticalAlign=top;align=center;outlineConnect=0;" vertex="1" parent="1">
          <mxGeometry x="610" y="620" width="83" height="62" as="geometry" />
        </mxCell>
        <mxCell id="u7dvvFw9IW0LgKCaf64A-8" value="" style="shape=mxgraph.cisco.computers_and_peripherals.upc;sketch=0;html=1;pointerEvents=1;dashed=0;fillColor=#036897;strokeColor=#ffffff;strokeWidth=2;verticalLabelPosition=bottom;verticalAlign=top;align=center;outlineConnect=0;" vertex="1" parent="1">
          <mxGeometry x="810" y="620" width="91" height="86" as="geometry" />
        </mxCell>
        <mxCell id="u7dvvFw9IW0LgKCaf64A-15" style="edgeStyle=none;rounded=0;orthogonalLoop=1;jettySize=auto;html=1;" edge="1" parent="1" source="u7dvvFw9IW0LgKCaf64A-9" target="1c7a67bf8fd3230f-48">
          <mxGeometry relative="1" as="geometry" />
        </mxCell>
        <mxCell id="u7dvvFw9IW0LgKCaf64A-9" value="" style="shape=mxgraph.cisco.computers_and_peripherals.printer;sketch=0;html=1;pointerEvents=1;dashed=0;fillColor=#036897;strokeColor=#ffffff;strokeWidth=2;verticalLabelPosition=bottom;verticalAlign=top;align=center;outlineConnect=0;" vertex="1" parent="1">
          <mxGeometry x="1010" y="646" width="91" height="34" as="geometry" />
        </mxCell>
        <mxCell id="u7dvvFw9IW0LgKCaf64A-10" value="" style="shape=mxgraph.cisco.computers_and_peripherals.printer;sketch=0;html=1;pointerEvents=1;dashed=0;fillColor=#036897;strokeColor=#ffffff;strokeWidth=2;verticalLabelPosition=bottom;verticalAlign=top;align=center;outlineConnect=0;" vertex="1" parent="1">
          <mxGeometry x="1170" y="646" width="91" height="34" as="geometry" />
        </mxCell>
        <mxCell id="u7dvvFw9IW0LgKCaf64A-11" value="" style="shape=mxgraph.cisco.computers_and_peripherals.upc;sketch=0;html=1;pointerEvents=1;dashed=0;fillColor=#036897;strokeColor=#ffffff;strokeWidth=2;verticalLabelPosition=bottom;verticalAlign=top;align=center;outlineConnect=0;" vertex="1" parent="1">
          <mxGeometry x="1340" y="623" width="91" height="86" as="geometry" />
        </mxCell>
        <mxCell id="u7dvvFw9IW0LgKCaf64A-12" value="" style="shape=mxgraph.cisco.computers_and_peripherals.laptop;sketch=0;html=1;pointerEvents=1;dashed=0;fillColor=#036897;strokeColor=#ffffff;strokeWidth=2;verticalLabelPosition=bottom;verticalAlign=top;align=center;outlineConnect=0;" vertex="1" parent="1">
          <mxGeometry x="1510" y="635.5" width="90" height="61" as="geometry" />
        </mxCell>
      </root>
    </mxGraphModel>
  </diagram>
</mxfile>
